# xmcd
#
# Track frame offsets:
# 150
# 22222
# 39283
# 55650
# 66670
# 87626
# 106756
# 123320
# 140915
# 153309
# 166521
# 182233
# 204265
# 219330
#
# Disc length: 3191 seconds
#
# Revision: 0
# Processed by: cddbd v1.4PL0 Copyright (c) Steve Scherf et al.
# Submitted via: MacMP3 Pro 5.0 (http://mp3.act2.co.jp/)
#
DISCID=c30c750e
DTITLE=iDEALDECO - Ceremony
DYEAR=1900
DGENRE=
TTITLE0=M-1
TTITLE1=M-2
TTITLE2=M-3
TTITLE3=M-4
TTITLE4=M-5
TTITLE5=M-6
TTITLE6=M-7
TTITLE7=M-8
TTITLE8=M-9
TTITLE9=M-10
TTITLE10=M-11
TTITLE11=M-12
TTITLE12=M-13
TTITLE13=M-14
EXTD=
EXTT0=
EXTT1=
EXTT2=
EXTT3=
EXTT4=
EXTT5=
EXTT6=
EXTT7=
EXTT8=
EXTT9=
EXTT10=
EXTT11=
EXTT12=
EXTT13=
PLAYORDER=
